<?xml version="1.0" standalone="no"?><!DOCTYPE svg PUBLIC "-//W3C//DTD SVG 1.1//EN" "http://www.w3.org/Graphics/SVG/1.1/DTD/svg11.dtd"><svg t="1725356966959" class="icon" viewBox="0 0 1024 1024" version="1.1" xmlns="http://www.w3.org/2000/svg" p-id="3401" xmlns:xlink="http://www.w3.org/1999/xlink" width="16" height="16"><path d="M96 496a400.042667 400.042667 0 1 1 800.042667 0.042667 400.042667 400.042667 0 0 1-800.042667-0.042667z m400-336a336.042667 336.042667 0 1 0 0.042667 672.042667 336.042667 336.042667 0 0 0-0.042667-672.042667z" fill="#111827" p-id="3402"></path><path d="M408.021333 440.021333a32 32 0 0 1 32-32h64a32 32 0 0 1 32 32v231.978667a32 32 0 0 1-64 0v-200.021333h-32a32 32 0 0 1-32-32z" fill="#111827" p-id="3403"></path><path d="M384 680.021333a32 32 0 0 1 32-32h176a32 32 0 0 1 0 64H416a32 32 0 0 1-32-32z" fill="#111827" p-id="3404"></path><path d="M496 260.010667a52.010667 52.010667 0 1 0 0 103.978666 52.010667 52.010667 0 0 0 0-103.978666z" fill="#111827" p-id="3405"></path></svg>