<?xml version="1.0" standalone="no"?><!DOCTYPE svg PUBLIC "-//W3C//DTD SVG 1.1//EN" "http://www.w3.org/Graphics/SVG/1.1/DTD/svg11.dtd"><svg t="1725355241941" class="icon" viewBox="0 0 1024 1024" version="1.1" xmlns="http://www.w3.org/2000/svg" p-id="1923" xmlns:xlink="http://www.w3.org/1999/xlink" width="16" height="16"><path d="M492.34326172 133.81542969a29.66308594 29.66308594 0 0 1 39.31347656 0 444.94628906 444.94628906 0 0 0 315.140625 111.25634765 29.66308594 29.66308594 0 0 1 29.82128906 21.23876954 504.27246094 504.27246094 0 0 1-357.14355468 630.36035156 29.66308594 29.66308594 0 0 1-14.91064454 0A504.27246094 504.27246094 0 0 1 147.34179687 266.31054687a29.66308594 29.66308594 0 0 1 29.82128907-21.23876953A444.94628906 444.94628906 0 0 0 492.34326172 133.81542969z m-293.86230469 171.0571289A444.94628906 444.94628906 0 0 0 512 837.22607422a444.94628906 444.94628906 0 0 0 313.51904297-532.35351563A504.27246094 504.27246094 0 0 1 512 194.76318359a504.27246094 504.27246094 0 0 1-313.55859375 110.109375zM651.61425781 411.93652344a29.66308594 29.66308594 0 0 1 0 41.92382812l-158.203125 158.203125a29.66308594 29.66308594 0 0 1-41.92382812 0l-79.1015625-79.1015625a29.66308594 29.66308594 0 1 1 41.92382812-41.92382812L472.44921875 549.17773438l137.24121094-137.24121094a29.66308594 29.66308594 0 0 1 41.92382812 0z" fill="#061237" p-id="1924"></path></svg>