<?xml version="1.0" standalone="no"?><!DOCTYPE svg PUBLIC "-//W3C//DTD SVG 1.1//EN" "http://www.w3.org/Graphics/SVG/1.1/DTD/svg11.dtd"><svg t="1725421218028" class="icon" viewBox="0 0 1024 1024" version="1.1" xmlns="http://www.w3.org/2000/svg" p-id="4444" xmlns:xlink="http://www.w3.org/1999/xlink" width="16" height="16"><path d="M170.666667 128a42.666667 42.666667 0 0 1 42.666666-42.666667h384a42.666667 42.666667 0 0 1 30.165334 12.501334l213.333333 213.333333A42.666667 42.666667 0 0 1 853.333333 341.333333v469.333334a128 128 0 0 1-128 128H298.666667a128 128 0 0 1-128-128V128z m85.333333 42.666667v640a42.666667 42.666667 0 0 0 42.666667 42.666666h426.666666a42.666667 42.666667 0 0 0 42.666667-42.666666V358.997333L579.669333 170.666667H256z" fill="#292929" p-id="4445"></path><path d="M512 384V128h85.333333v213.333333h213.333334v85.333334h-256a42.666667 42.666667 0 0 1-42.666667-42.666667zM670.165333 524.501333a42.666667 42.666667 0 0 1 0 60.330667l-170.666666 170.666667a42.666667 42.666667 0 0 1-60.330667 0l-85.333333-85.333334a42.666667 42.666667 0 1 1 60.330666-60.330666L469.333333 665.002667l140.501334-140.501334a42.666667 42.666667 0 0 1 60.330666 0z" fill="#292929" p-id="4446"></path></svg>