<?xml version="1.0" standalone="no"?><!DOCTYPE svg PUBLIC "-//W3C//DTD SVG 1.1//EN" "http://www.w3.org/Graphics/SVG/1.1/DTD/svg11.dtd"><svg t="1725421068808" class="icon" viewBox="0 0 1024 1024" version="1.1" xmlns="http://www.w3.org/2000/svg" p-id="4281" xmlns:xlink="http://www.w3.org/1999/xlink" width="16" height="16"><path d="M170.666667 426.666667a42.666667 42.666667 0 0 1 42.666666 42.666666v341.333334a42.666667 42.666667 0 0 0 42.666667 42.666666h512a42.666667 42.666667 0 0 0 42.666667-42.666666v-341.333334a42.666667 42.666667 0 1 1 85.333333 0v341.333334a128 128 0 0 1-128 128H256a128 128 0 0 1-128-128v-341.333334a42.666667 42.666667 0 0 1 42.666667-42.666666zM213.333333 192A149.333333 149.333333 0 0 1 362.666667 42.666667 192 192 0 0 1 554.666667 234.666667V298.666667a42.666667 42.666667 0 0 1-42.666667 42.666666H362.666667A149.333333 149.333333 0 0 1 213.333333 192zM362.666667 128a64 64 0 1 0 0 128H469.333333v-21.333333A106.666667 106.666667 0 0 0 362.666667 128z" fill="#292929" p-id="4282"></path><path d="M810.666667 192A149.333333 149.333333 0 0 0 661.333333 42.666667 192 192 0 0 0 469.333333 234.666667V298.666667a42.666667 42.666667 0 0 0 42.666667 42.666666h149.333333A149.333333 149.333333 0 0 0 810.666667 192zM661.333333 128a64 64 0 0 1 0 128H554.666667v-21.333333A106.666667 106.666667 0 0 1 661.333333 128z" fill="#292929" p-id="4283"></path><path d="M85.333333 298.666667a42.666667 42.666667 0 0 1 42.666667-42.666667h768a42.666667 42.666667 0 0 1 42.666667 42.666667v170.666666a42.666667 42.666667 0 0 1-42.666667 42.666667H128a42.666667 42.666667 0 0 1-42.666667-42.666667V298.666667z m85.333334 42.666666v85.333334h682.666666V341.333333H170.666667z" fill="#292929" p-id="4284"></path><path d="M512 426.666667a42.666667 42.666667 0 0 1 42.666667 42.666666v426.666667a42.666667 42.666667 0 1 1-85.333334 0V469.333333a42.666667 42.666667 0 0 1 42.666667-42.666666z" fill="#292929" p-id="4285"></path></svg>