<?xml version="1.0" standalone="no"?><!DOCTYPE svg PUBLIC "-//W3C//DTD SVG 1.1//EN" "http://www.w3.org/Graphics/SVG/1.1/DTD/svg11.dtd"><svg t="1725414763473" class="icon" viewBox="0 0 1024 1024" version="1.1" xmlns="http://www.w3.org/2000/svg" p-id="3460" xmlns:xlink="http://www.w3.org/1999/xlink" width="16" height="16"><path d="M481.834667 97.834667a42.666667 42.666667 0 0 1 60.330666 0l384 384a42.666667 42.666667 0 0 1-60.330666 60.330666L853.333333 529.664V810.666667a128 128 0 0 1-128 128H298.666667a128 128 0 0 1-128-128v-281.002667l-12.501334 12.501333a42.666667 42.666667 0 0 1-60.330666-60.330666l85.333333-85.333334 298.666667-298.666666zM256 444.330667V810.666667a42.666667 42.666667 0 0 0 42.666667 42.666666h426.666666a42.666667 42.666667 0 0 0 42.666667-42.666666v-366.336l-256-256-256 256z" fill="#292929" p-id="3461"></path></svg>