<?xml version="1.0" standalone="no"?><!DOCTYPE svg PUBLIC "-//W3C//DTD SVG 1.1//EN" "http://www.w3.org/Graphics/SVG/1.1/DTD/svg11.dtd"><svg t="1725356666825" class="icon" viewBox="0 0 1024 1024" version="1.1" xmlns="http://www.w3.org/2000/svg" p-id="2907" xmlns:xlink="http://www.w3.org/1999/xlink" width="16" height="16"><path d="M172.64605697 172.64605697A72.09777864 72.09777864 0 0 1 223.60888689 151.51110823h411.98730475A72.09777864 72.09777864 0 0 1 707.69396956 223.60888689v10.29968245H800.39111311A72.09777864 72.09777864 0 0 1 872.48889177 306.00634798v453.1860346A113.29650847 113.29650847 0 0 1 759.19238258 872.48889177H306.00634798A154.49523902 154.49523902 0 0 1 151.51110823 717.99365202V223.60888689c0-19.11621061 7.58056673-37.49084481 21.13494873-50.96282992zM658.25549349 810.69079558a113.29650847 113.29650847 0 0 1-12.35961939-51.498413V223.60888689a10.29968246 10.29968246 0 0 0-10.29968246-10.29968247H223.60888689a10.29968246 10.29968246 0 0 0-10.29968247 10.29968247v494.38476513A92.69714356 92.69714356 0 0 0 306.00634798 810.69079558h352.24914551z m49.43847608-514.98413078V759.19238258a51.49841301 51.49841301 0 0 0 102.996826 0V306.00634798a10.29968246 10.29968246 0 0 0-10.29968246-10.29968318h-92.69714354zM316.30603044 347.2050778A30.89904809 30.89904809 0 0 1 347.2050778 316.30603044h164.7949222a30.89904809 30.89904809 0 0 1 0 61.79809546H347.2050778A30.89904809 30.89904809 0 0 1 316.30603044 347.2050778z m-1e-8 164.7949222A30.89904809 30.89904809 0 0 1 347.2050778 481.10095191h164.7949222a30.89904809 30.89904809 0 0 1 0 61.79809618H347.2050778A30.89904809 30.89904809 0 0 1 316.30603044 512z m0 164.7949222a30.89904809 30.89904809 0 0 1 30.89904737-30.8990481h164.7949222a30.89904809 30.89904809 0 0 1 0 61.79809546H347.2050778a30.89904809 30.89904809 0 0 1-30.89904737-30.89904736z" fill="#061237" p-id="2908"></path></svg>