<?xml version="1.0" standalone="no"?><!DOCTYPE svg PUBLIC "-//W3C//DTD SVG 1.1//EN" "http://www.w3.org/Graphics/SVG/1.1/DTD/svg11.dtd"><svg t="1725415078678" class="icon" viewBox="0 0 1024 1024" version="1.1" xmlns="http://www.w3.org/2000/svg" p-id="3951" xmlns:xlink="http://www.w3.org/1999/xlink" width="16" height="16"><path d="M170.666667 128a42.666667 42.666667 0 0 1 42.666666-42.666667h597.333334a42.666667 42.666667 0 0 1 42.666666 42.666667v768a42.666667 42.666667 0 0 1-70.4 32.426667l-44.074666-37.76a42.666667 42.666667 0 0 0-55.509334 0l-44.032 37.717333a42.666667 42.666667 0 0 1-55.552 0l-43.989333-37.717333a42.666667 42.666667 0 0 0-55.552 0l-43.989333 37.717333a42.666667 42.666667 0 0 1-55.552 0l-44.032-37.717333a42.666667 42.666667 0 0 0-55.509334 0l-44.032 37.717333A42.666667 42.666667 0 0 1 170.666667 896V128z m85.333333 42.666667v637.696a128 128 0 0 1 140.202667 17.493333l16.213333 13.952 16.298667-13.952a128 128 0 0 1 166.570666 0l16.256 13.952 16.256-13.952a128 128 0 0 1 140.202667-17.493333V170.666667H256z" fill="#292929" p-id="3952"></path><path d="M341.333333 298.666667a42.666667 42.666667 0 0 1 42.666667-42.666667h256a42.666667 42.666667 0 1 1 0 85.333333H384a42.666667 42.666667 0 0 1-42.666667-42.666666zM341.333333 469.333333a42.666667 42.666667 0 0 1 42.666667-42.666666h256a42.666667 42.666667 0 1 1 0 85.333333H384a42.666667 42.666667 0 0 1-42.666667-42.666667zM426.666667 640a42.666667 42.666667 0 0 1 42.666666-42.666667h170.666667a42.666667 42.666667 0 1 1 0 85.333334h-170.666667a42.666667 42.666667 0 0 1-42.666666-42.666667z" fill="#292929" p-id="3953"></path></svg>