<?xml version="1.0" standalone="no"?><!DOCTYPE svg PUBLIC "-//W3C//DTD SVG 1.1//EN" "http://www.w3.org/Graphics/SVG/1.1/DTD/svg11.dtd"><svg t="1730911063324" class="icon" viewBox="0 0 1024 1024" version="1.1" xmlns="http://www.w3.org/2000/svg" p-id="1528" xmlns:xlink="http://www.w3.org/1999/xlink" width="32" height="32"><path d="M624.212176 276.781814l-71.241554 131.271766c-19.010983 35.568077-30.606065 59.231009-34.863019 70.941726l-1.230014 0c-12.525268-28.499078-47.876404-95.881744-106.089224-202.213491l-67.011206 0L468.385155 490.821655l-102.163821 0 0 47.315632 119.755478 0 0 65.175395L366.221334 603.312682l0 47.872311 119.755478 0 0 94.919836 59.420321 0 0-94.919836 115.524107 0L660.921239 603.313705 545.397133 603.313705l0-65.175395 115.51899 0L660.916123 490.821655l-99.140974 0 125.820614-214.039841L624.212176 276.781814 624.212176 276.781814z" fill="#272636" p-id="1529"></path><path d="M472.181621 389.620765" fill="#272636" p-id="1530"></path><path d="M199.168644 193.623859c68.079538-68.078515 155.862837-112.234177 252.850775-126.163421 118.556163-17.019629 236.69891 13.184277 332.576561 84.998883 95.90221 71.839165 158.092621 176.715771 175.125553 295.293423 35.160801 244.868987-135.478578 472.599641-380.219651 507.783978-102.627379 14.725376-207.862141-6.777357-296.331056-60.489676-15.132652-9.202593-19.936051-28.91147-10.760065-44.022633 9.261944-15.017018 28.882817-19.957541 44.018539-10.760065 75.780941 46.060035 165.972079 64.4775 253.967202 51.833529 209.737862-30.083156 355.99697-225.326908 325.891302-435.237709-14.59337-101.632725-67.900459-191.509708-150.113903-253.064646-82.191954-61.579497-183.439916-87.429235-285.048081-72.819492C251.162832 161.071466 104.968192 356.335684 135.125025 566.199413c7.900947 54.94131 26.978445 106.278535 56.770981 152.561651 9.558703 14.913665 5.211698 34.803667-9.583263 44.292785-14.883989 9.581216-34.729989 5.27412-44.287669-9.584286-34.781154-54.122665-57.072857-114.02394-66.336848-178.161702C54.673715 456.746582 84.851015 338.574159 156.739299 242.672972 169.807942 225.163179 183.990966 208.80256 199.168644 193.623859L199.168644 193.623859 199.168644 193.623859z" fill="#272636" p-id="1531"></path></svg>