<?xml version="1.0" standalone="no"?><!DOCTYPE svg PUBLIC "-//W3C//DTD SVG 1.1//EN" "http://www.w3.org/Graphics/SVG/1.1/DTD/svg11.dtd"><svg t="1725356909398" class="icon" viewBox="0 0 1024 1024" version="1.1" xmlns="http://www.w3.org/2000/svg" p-id="3236" xmlns:xlink="http://www.w3.org/1999/xlink" width="16" height="16"><path d="M256 586.666667c-29.44 0-53.333333 23.893333-53.333333 53.333333v85.333333a53.333333 53.333333 0 1 0 106.666666 0v-85.333333c0-29.44-23.893333-53.333333-53.333333-53.333333zM138.666667 640a117.333333 117.333333 0 1 1 234.666666 0v85.333333a117.333333 117.333333 0 1 1-234.666666 0v-85.333333zM768 586.666667c-29.44 0-53.333333 23.893333-53.333333 53.333333v85.333333a53.333333 53.333333 0 1 0 106.666666 0v-85.333333c0-29.44-23.893333-53.333333-53.333333-53.333333zM650.666667 640a117.333333 117.333333 0 1 1 234.666666 0v85.333333a117.333333 117.333333 0 1 1-234.666666 0v-85.333333z" fill="#111827" p-id="3237"></path><path d="M512 202.666667A309.333333 309.333333 0 0 0 202.666667 512v128a32 32 0 0 1-64 0v-128a373.333333 373.333333 0 1 1 746.666666 0v128a32 32 0 0 1-64 0v-128A309.333333 309.333333 0 0 0 512 202.666667z m256 576a32 32 0 0 1 32 32c0 52.224-40.704 93.141333-92.672 119.125333-53.461333 26.752-123.733333 40.874667-195.328 40.874667a32 32 0 0 1 0-64c64.213333 0 124.16-12.8 166.698667-34.133334 44.032-22.016 57.301333-46.165333 57.301333-61.866666a32 32 0 0 1 32-32z" fill="#111827" p-id="3238"></path></svg>