<?xml version="1.0" standalone="no"?><!DOCTYPE svg PUBLIC "-//W3C//DTD SVG 1.1//EN" "http://www.w3.org/Graphics/SVG/1.1/DTD/svg11.dtd"><svg t="1725356488598" class="icon" viewBox="0 0 1024 1024" version="1.1" xmlns="http://www.w3.org/2000/svg" p-id="2742" xmlns:xlink="http://www.w3.org/1999/xlink" width="16" height="16"><path d="M512 160a352 352 0 1 0 0 704 352 352 0 0 0 0-704zM96 512c0-229.76 186.24-416 416-416s416 186.24 416 416-186.24 416-416 416S96 741.76 96 512z" fill="#111827" p-id="2743"></path><path d="M512 266.666667a32 32 0 0 1 32 32v10.666666h10.154667a117.333333 117.333333 0 0 1 105.045333 58.666667 32 32 0 0 1-55.466667 32A53.333333 53.333333 0 0 0 554.666667 373.333333h-10.666667v106.666667H554.666667a117.333333 117.333333 0 1 1 0 234.666667h-10.666667V725.333333a32 32 0 0 1-64 0v-10.666666h-10.154667a117.333333 117.333333 0 0 1-105.045333-58.666667 32 32 0 0 1 55.466667-32 53.333333 53.333333 0 0 0 49.066666 26.666667h10.666667v-106.666667H469.333333a117.333333 117.333333 0 1 1 0-234.666667h10.666667V298.666667a32 32 0 0 1 32-32z m-32 106.666666H469.333333a53.333333 53.333333 0 0 0 0 106.666667h10.666667v-106.666667z m64 170.666667v106.666667H554.666667a53.333333 53.333333 0 0 0 0-106.666667h-10.666667z" fill="#111827" p-id="2744"></path></svg>