<?xml version="1.0" standalone="no"?><!DOCTYPE svg PUBLIC "-//W3C//DTD SVG 1.1//EN" "http://www.w3.org/Graphics/SVG/1.1/DTD/svg11.dtd"><svg t="1725414858281" class="icon" viewBox="0 0 1024 1024" version="1.1" xmlns="http://www.w3.org/2000/svg" p-id="3622" xmlns:xlink="http://www.w3.org/1999/xlink" width="16" height="16"><path d="M512 170.666667a128 128 0 0 0-128 128v128a42.666667 42.666667 0 1 1-85.333333 0V298.666667a213.333333 213.333333 0 0 1 426.666666 0v128a42.666667 42.666667 0 1 1-85.333333 0V298.666667a128 128 0 0 0-128-128z" fill="#292929" p-id="3623"></path><path d="M170.666667 426.666667a42.666667 42.666667 0 0 1 42.666666-42.666667h597.333334a42.666667 42.666667 0 0 1 42.666666 42.666667v384a128 128 0 0 1-128 128H298.666667a128 128 0 0 1-128-128v-384z m85.333333 42.666666v341.333334a42.666667 42.666667 0 0 0 42.666667 42.666666h426.666666a42.666667 42.666667 0 0 0 42.666667-42.666666v-341.333334H256z" fill="#292929" p-id="3624"></path><path d="M554.666667 661.333333a64 64 0 0 1 64-64h0.426666a64 64 0 0 1 64 64v0.426667a64 64 0 0 1-64 64h-0.426666a64 64 0 0 1-64-64v-0.426667z" fill="#292929" p-id="3625"></path></svg>