<?xml version="1.0" standalone="no"?><!DOCTYPE svg PUBLIC "-//W3C//DTD SVG 1.1//EN" "http://www.w3.org/Graphics/SVG/1.1/DTD/svg11.dtd"><svg t="1725356429776" class="icon" viewBox="0 0 1024 1024" version="1.1" xmlns="http://www.w3.org/2000/svg" p-id="2577" xmlns:xlink="http://www.w3.org/1999/xlink" width="16" height="16"><path d="M298.666667 501.333333c-29.44 0-53.333333 23.893333-53.333334 53.333334v256c0 29.44 23.893333 53.333333 53.333334 53.333333h426.666666c29.44 0 53.333333-23.893333 53.333334-53.333333v-256c0-29.44-23.893333-53.333333-53.333334-53.333334H298.666667zM181.333333 554.666667A117.333333 117.333333 0 0 1 298.666667 437.333333h426.666666A117.333333 117.333333 0 0 1 842.666667 554.666667v256A117.333333 117.333333 0 0 1 725.333333 928H298.666667A117.333333 117.333333 0 0 1 181.333333 810.666667v-256z" fill="#121933" p-id="2578"></path><path d="M512 672a10.666667 10.666667 0 1 0 0 21.333333 10.666667 10.666667 0 0 0 0-21.333333z m-74.666667 10.666667a74.666667 74.666667 0 1 1 149.333334 0 74.666667 74.666667 0 0 1-149.333334 0zM512 160A138.666667 138.666667 0 0 0 373.333333 298.666667v170.666666a32 32 0 0 1-64 0V298.666667a202.666667 202.666667 0 1 1 405.333334 0v170.666666a32 32 0 0 1-64 0V298.666667A138.666667 138.666667 0 0 0 512 160z" fill="#121933" p-id="2579"></path></svg>