<?xml version="1.0" standalone="no"?><!DOCTYPE svg PUBLIC "-//W3C//DTD SVG 1.1//EN" "http://www.w3.org/Graphics/SVG/1.1/DTD/svg11.dtd"><svg t="1725355774477" class="icon" viewBox="0 0 1024 1024" version="1.1" xmlns="http://www.w3.org/2000/svg" p-id="2085" xmlns:xlink="http://www.w3.org/1999/xlink" width="16" height="16"><path d="M512 160a138.666667 138.666667 0 1 0 0 277.333333 138.666667 138.666667 0 0 0 0-277.333333zM309.333333 298.666667a202.666667 202.666667 0 1 1 405.333334 0 202.666667 202.666667 0 0 1-405.333334 0zM426.666667 672A138.666667 138.666667 0 0 0 288 810.666667v85.333333a32 32 0 0 1-64 0v-85.333333A202.666667 202.666667 0 0 1 426.666667 608h170.666666A202.666667 202.666667 0 0 1 800 810.666667v85.333333a32 32 0 0 1-64 0v-85.333333A138.666667 138.666667 0 0 0 597.333333 672h-170.666666z" fill="#121933" p-id="2086"></path></svg>