<?xml version="1.0" standalone="no"?><!DOCTYPE svg PUBLIC "-//W3C//DTD SVG 1.1//EN" "http://www.w3.org/Graphics/SVG/1.1/DTD/svg11.dtd"><svg t="1725420868279" class="icon" viewBox="0 0 1024 1024" version="1.1" xmlns="http://www.w3.org/2000/svg" p-id="4116" xmlns:xlink="http://www.w3.org/1999/xlink" width="16" height="16"><path d="M512 170.666667a341.333333 341.333333 0 1 0 0 682.666666 341.333333 341.333333 0 0 0 0-682.666666zM85.333333 512C85.333333 276.352 276.352 85.333333 512 85.333333s426.666667 191.018667 426.666667 426.666667-191.018667 426.666667-426.666667 426.666667S85.333333 747.648 85.333333 512z" fill="#292929" p-id="4117"></path><path d="M320 405.333333A64 64 0 0 1 384 341.333333h0.426667a64 64 0 0 1 64 64v0.426667a64 64 0 0 1-64 64H384a64 64 0 0 1-64-64V405.333333zM576 405.333333A64 64 0 0 1 640 341.333333h0.426667a64 64 0 0 1 64 64v0.426667a64 64 0 0 1-64 64H640a64 64 0 0 1-64-64V405.333333zM342.784 560.384a42.666667 42.666667 0 0 1 58.325333 15.573333C423.253333 614.4 464.64 640 512 640c47.36 0 88.746667-25.642667 110.933333-64a42.666667 42.666667 0 1 1 73.813334 42.666667A213.248 213.248 0 0 1 512 725.333333a213.248 213.248 0 0 1-184.746667-106.666666 42.666667 42.666667 0 0 1 15.530667-58.282667z" fill="#292929" p-id="4118"></path></svg>